<svg width="199" height="126" viewBox="0 0 199 126" fill="none" xmlns="http://www.w3.org/2000/svg">
<path d="M1.50003 64C2.71432 72.5 11 90.9999 65.5 99.5C73 100.67 85.7 105.1 132.5 99.5C191 92.5 200.5 69.5001 198 60.5C196.528 55.2007 185.5 34.001 132.5 27.5C130.5 27.2547 109.5 22.8077 63.5 29C11.5 36 0.50003 57 1.50003 64Z" stroke="white"/>
<path d="M99.5 125C111.5 125 124.5 116 132.5 98C135.519 91.2076 148 63.9999 132.5 28.4999C122.244 5.00935 105.5 0.999962 99.5 0.999962C94.0001 0.999962 78.5 0.999962 64.5 28.4999C58.9944 39.3144 52.2165 69.5 66.0001 99.5C74.5 118 87.5 125 99.5 125Z" stroke="white"/>
<path d="M98 55.5C105.6 55.5 107.833 60.8333 108 63.5C99.5 63 96 65 95.5 73L95 73.5H94C93 72 92.5 75 89 74.5C91 72 89.5 74 91.5 71.5C89.5 70 87.6667 66.5 88 64C88.1667 61.1667 90.4 55.5 98 55.5Z" fill="white"/>
<path d="M104.515 77.3181C106.365 77.3181 107.167 77.1666 107.5 77C107.9 77 110.167 78.3333 111.5 78.5C111 78 110.333 76.3333 110 75.5C111.5 75 112 73 112 71C112 71 111.5 64.5 104.5 65C98.5 65 97.1817 68.9848 97.0151 71.3181C97 75.5 101 77.3181 104.515 77.3181Z" fill="white"/>
</svg>
